<mxfile host="65bd71144e">
    <diagram name="Page-1" id="9B7ffDTyQbbA48rRYhjD">
        <mxGraphModel dx="1127" dy="484" grid="0" gridSize="10" guides="1" tooltips="1" connect="1" arrows="1" fold="1" page="0" pageScale="1" pageWidth="850" pageHeight="1100" background="#ffffff" math="0" shadow="0">
            <root>
                <mxCell id="0"/>
                <mxCell id="1" parent="0"/>
                <mxCell id="VtcGEfWtAmaAnJa_2v7W-5" value="&lt;b&gt;&lt;font style=&quot;font-size: 18px;&quot;&gt;AWS Cloud&lt;/font&gt;&lt;/b&gt;" style="points=[[0,0],[0.25,0],[0.5,0],[0.75,0],[1,0],[1,0.25],[1,0.5],[1,0.75],[1,1],[0.75,1],[0.5,1],[0.25,1],[0,1],[0,0.75],[0,0.5],[0,0.25]];outlineConnect=0;gradientColor=none;html=1;whiteSpace=wrap;fontSize=12;fontStyle=0;container=1;pointerEvents=0;collapsible=0;recursiveResize=0;shape=mxgraph.aws4.group;grIcon=mxgraph.aws4.group_aws_cloud_alt;strokeColor=#232F3E;fillColor=none;verticalAlign=top;align=left;spacingLeft=30;fontColor=#232F3E;strokeWidth=3;" parent="1" vertex="1">
                    <mxGeometry x="-277" y="111" width="1423" height="614" as="geometry"/>
                </mxCell>
                <mxCell id="VtcGEfWtAmaAnJa_2v7W-8" value="&lt;b&gt;&lt;font style=&quot;font-size: 18px;&quot;&gt;Region&lt;/font&gt;&lt;/b&gt;" style="points=[[0,0],[0.25,0],[0.5,0],[0.75,0],[1,0],[1,0.25],[1,0.5],[1,0.75],[1,1],[0.75,1],[0.5,1],[0.25,1],[0,1],[0,0.75],[0,0.5],[0,0.25]];outlineConnect=0;gradientColor=none;html=1;whiteSpace=wrap;fontSize=12;fontStyle=0;container=1;pointerEvents=0;collapsible=0;recursiveResize=0;shape=mxgraph.aws4.group;grIcon=mxgraph.aws4.group_region;strokeColor=#00A4A6;fillColor=none;verticalAlign=top;align=left;spacingLeft=30;fontColor=#147EBA;dashed=1;strokeWidth=3;" parent="VtcGEfWtAmaAnJa_2v7W-5" vertex="1">
                    <mxGeometry x="9" y="33" width="1363" height="568" as="geometry"/>
                </mxCell>
                <mxCell id="VtcGEfWtAmaAnJa_2v7W-11" value="&lt;font style=&quot;font-size: 15px;&quot;&gt;&lt;b&gt;VPC&lt;/b&gt;&lt;/font&gt;" style="points=[[0,0],[0.25,0],[0.5,0],[0.75,0],[1,0],[1,0.25],[1,0.5],[1,0.75],[1,1],[0.75,1],[0.5,1],[0.25,1],[0,1],[0,0.75],[0,0.5],[0,0.25]];outlineConnect=0;gradientColor=none;html=1;whiteSpace=wrap;fontSize=12;fontStyle=0;container=1;pointerEvents=0;collapsible=0;recursiveResize=0;shape=mxgraph.aws4.group;grIcon=mxgraph.aws4.group_vpc2;strokeColor=#8C4FFF;fillColor=none;verticalAlign=top;align=left;spacingLeft=30;fontColor=#AAB7B8;dashed=0;strokeWidth=3;" parent="VtcGEfWtAmaAnJa_2v7W-8" vertex="1">
                    <mxGeometry x="19" y="62" width="1306" height="479" as="geometry"/>
                </mxCell>
                <mxCell id="VtcGEfWtAmaAnJa_2v7W-13" style="edgeStyle=orthogonalEdgeStyle;rounded=0;orthogonalLoop=1;jettySize=auto;html=1;exitX=0.5;exitY=1;exitDx=0;exitDy=0;" parent="VtcGEfWtAmaAnJa_2v7W-11" edge="1">
                    <mxGeometry relative="1" as="geometry">
                        <mxPoint x="653" y="469" as="sourcePoint"/>
                        <mxPoint x="653" y="469" as="targetPoint"/>
                    </mxGeometry>
                </mxCell>
                <mxCell id="VtcGEfWtAmaAnJa_2v7W-28" value="" style="sketch=0;points=[[0,0,0],[0.25,0,0],[0.5,0,0],[0.75,0,0],[1,0,0],[0,1,0],[0.25,1,0],[0.5,1,0],[0.75,1,0],[1,1,0],[0,0.25,0],[0,0.5,0],[0,0.75,0],[1,0.25,0],[1,0.5,0],[1,0.75,0]];outlineConnect=0;fontColor=#232F3E;fillColor=#7AA116;strokeColor=#ffffff;dashed=0;verticalLabelPosition=bottom;verticalAlign=top;align=center;html=1;fontSize=12;fontStyle=0;aspect=fixed;shape=mxgraph.aws4.resourceIcon;resIcon=mxgraph.aws4.s3;" parent="VtcGEfWtAmaAnJa_2v7W-11" vertex="1">
                    <mxGeometry x="1016" y="123" width="89" height="89" as="geometry"/>
                </mxCell>
                <mxCell id="VtcGEfWtAmaAnJa_2v7W-33" value="Private subnet" style="points=[[0,0],[0.25,0],[0.5,0],[0.75,0],[1,0],[1,0.25],[1,0.5],[1,0.75],[1,1],[0.75,1],[0.5,1],[0.25,1],[0,1],[0,0.75],[0,0.5],[0,0.25]];outlineConnect=0;gradientColor=none;html=1;whiteSpace=wrap;fontSize=12;fontStyle=0;container=1;pointerEvents=0;collapsible=0;recursiveResize=0;shape=mxgraph.aws4.group;grIcon=mxgraph.aws4.group_security_group;grStroke=0;strokeColor=#00A4A6;fillColor=#E6F6F7;verticalAlign=top;align=left;spacingLeft=30;fontColor=#147EBA;dashed=0;" parent="VtcGEfWtAmaAnJa_2v7W-11" vertex="1">
                    <mxGeometry x="34" y="262" width="392" height="134" as="geometry"/>
                </mxCell>
                <mxCell id="VtcGEfWtAmaAnJa_2v7W-9" value="&lt;font style=&quot;font-size: 15px;&quot;&gt;&lt;b&gt;Availability Zone (US-east-1)&lt;/b&gt;&lt;/font&gt;" style="fillColor=none;strokeColor=#147EBA;verticalAlign=top;fontStyle=0;fontColor=#147EBA;whiteSpace=wrap;html=1;strokeWidth=3;" parent="VtcGEfWtAmaAnJa_2v7W-11" vertex="1">
                    <mxGeometry x="8" y="35" width="1278" height="420" as="geometry"/>
                </mxCell>
                <mxCell id="VtcGEfWtAmaAnJa_2v7W-25" value="" style="sketch=0;outlineConnect=0;fontColor=#232F3E;gradientColor=none;fillColor=#8C4FFF;strokeColor=none;dashed=0;verticalLabelPosition=bottom;verticalAlign=top;align=center;html=1;fontSize=12;fontStyle=0;aspect=fixed;pointerEvents=1;shape=mxgraph.aws4.internet_gateway;" parent="VtcGEfWtAmaAnJa_2v7W-8" vertex="1">
                    <mxGeometry x="639.5" y="33" width="59" height="59" as="geometry"/>
                </mxCell>
                <mxCell id="VtcGEfWtAmaAnJa_2v7W-29" value="" style="sketch=0;points=[[0,0,0],[0.25,0,0],[0.5,0,0],[0.75,0,0],[1,0,0],[0,1,0],[0.25,1,0],[0.5,1,0],[0.75,1,0],[1,1,0],[0,0.25,0],[0,0.5,0],[0,0.75,0],[1,0.25,0],[1,0.5,0],[1,0.75,0]];outlineConnect=0;fontColor=#232F3E;fillColor=#3333FF;strokeColor=#ffffff;dashed=0;verticalLabelPosition=bottom;verticalAlign=top;align=center;html=1;fontSize=12;fontStyle=0;aspect=fixed;shape=mxgraph.aws4.resourceIcon;resIcon=mxgraph.aws4.rds;" parent="VtcGEfWtAmaAnJa_2v7W-8" vertex="1">
                    <mxGeometry x="1035" y="305" width="84" height="84" as="geometry"/>
                </mxCell>
                <mxCell id="VtcGEfWtAmaAnJa_2v7W-31" value="Public subnet" style="points=[[0,0],[0.25,0],[0.5,0],[0.75,0],[1,0],[1,0.25],[1,0.5],[1,0.75],[1,1],[0.75,1],[0.5,1],[0.25,1],[0,1],[0,0.75],[0,0.5],[0,0.25]];outlineConnect=0;gradientColor=none;html=1;whiteSpace=wrap;fontSize=12;fontStyle=0;container=1;pointerEvents=0;collapsible=0;recursiveResize=0;shape=mxgraph.aws4.group;grIcon=mxgraph.aws4.group_security_group;grStroke=0;strokeColor=#7AA116;fillColor=#F2F6E8;verticalAlign=top;align=left;spacingLeft=30;fontColor=#248814;dashed=0;" parent="VtcGEfWtAmaAnJa_2v7W-8" vertex="1">
                    <mxGeometry x="54" y="169" width="391" height="134" as="geometry"/>
                </mxCell>
                <mxCell id="VtcGEfWtAmaAnJa_2v7W-32" value="" style="sketch=0;points=[[0,0,0],[0.25,0,0],[0.5,0,0],[0.75,0,0],[1,0,0],[0,1,0],[0.25,1,0],[0.5,1,0],[0.75,1,0],[1,1,0],[0,0.25,0],[0,0.5,0],[0,0.75,0],[1,0.25,0],[1,0.5,0],[1,0.75,0]];outlineConnect=0;fontColor=#232F3E;fillColor=#ED7100;strokeColor=#ffffff;dashed=0;verticalLabelPosition=bottom;verticalAlign=top;align=center;html=1;fontSize=12;fontStyle=0;aspect=fixed;shape=mxgraph.aws4.resourceIcon;resIcon=mxgraph.aws4.ec2;" parent="VtcGEfWtAmaAnJa_2v7W-31" vertex="1">
                    <mxGeometry x="143" y="21.5" width="78" height="78" as="geometry"/>
                </mxCell>
            </root>
        </mxGraphModel>
    </diagram>
</mxfile>